<svg width="224" height="47" viewBox="0 0 224 47" fill="none" xmlns="http://www.w3.org/2000/svg">
<g clip-path="url(#clip0_82801_287)">
<path d="M17.4647 35.5588C14.0021 35.5588 11.0293 34.8269 8.54669 33.3633C6.06403 31.8672 4.15303 29.8018 2.81369 27.1672C1.47435 24.5002 0.804688 21.4266 0.804688 17.9463C0.804688 14.4661 1.47435 11.3925 2.81369 8.72542C4.15303 6.05835 6.06403 3.97673 8.54669 2.48057C11.0293 0.984409 14.0021 0.236328 17.4647 0.236328C21.5807 0.236328 24.9453 1.26087 27.5587 3.30996C30.2047 5.32654 31.8543 8.17248 32.5077 11.8478H25.5987C25.1741 9.9939 24.2593 8.54654 22.8547 7.50572C21.4827 6.43239 19.6533 5.89572 17.3667 5.89572C14.1981 5.89572 11.7153 6.96906 9.91869 9.11572C8.12203 11.2624 7.22369 14.206 7.22369 17.9463C7.22369 21.6867 8.12203 24.6303 9.91869 26.7769C11.7153 28.8911 14.1981 29.9481 17.3667 29.9481C19.6533 29.9481 21.4827 29.4603 22.8547 28.4845C24.2593 27.4763 25.1741 26.0939 25.5987 24.3375H32.5077C31.8543 27.8503 30.2047 30.5987 27.5587 32.5827C24.9453 34.5667 21.5807 35.5588 17.4647 35.5588ZM45.3117 35.5588C43.2209 35.5588 41.5059 35.2335 40.1667 34.583C38.8273 33.9 37.8309 33.0055 37.1777 31.8997C36.5243 30.7938 36.1977 29.5742 36.1977 28.2406C36.1977 25.9963 37.0797 24.1749 38.8437 22.7763C40.6077 21.3778 43.2537 20.6784 46.7817 20.6784H52.9557V20.093C52.9557 18.4342 52.4819 17.2145 51.5347 16.4339C50.5873 15.6533 49.4113 15.263 48.0067 15.263C46.7327 15.263 45.6219 15.572 44.6747 16.19C43.7273 16.7754 43.1393 17.6536 42.9107 18.8245H36.7857C36.9489 17.0681 37.5369 15.5394 38.5497 14.2384C39.5949 12.9374 40.9343 11.9454 42.5677 11.2624C44.2009 10.5468 46.0303 10.1891 48.0557 10.1891C51.5183 10.1891 54.2459 11.051 56.2387 12.7748C58.2313 14.4987 59.2277 16.9381 59.2277 20.093V34.9733H53.8867L53.2987 31.0703C52.5799 32.3712 51.5673 33.4446 50.2607 34.2903C48.9867 35.136 47.3369 35.5588 45.3117 35.5588ZM46.7327 30.68C48.5293 30.68 49.9177 30.0945 50.8977 28.9236C51.9103 27.7527 52.5473 26.3054 52.8087 24.5815H47.4677C45.8017 24.5815 44.6093 24.8905 43.8907 25.5084C43.1719 26.0939 42.8127 26.8257 42.8127 27.7039C42.8127 28.6472 43.1719 29.379 43.8907 29.8994C44.6093 30.4197 45.5567 30.68 46.7327 30.68ZM74.2779 35.5588C72.1219 35.5588 70.2272 35.2172 68.5939 34.5342C66.9606 33.8187 65.6539 32.8429 64.6739 31.6069C63.6939 30.3709 63.1059 28.9399 62.9099 27.3136H69.2309C69.4269 28.2569 69.9496 29.07 70.7989 29.753C71.6809 30.4035 72.8079 30.7288 74.1799 30.7288C75.5519 30.7288 76.5482 30.4523 77.1689 29.8994C77.8222 29.3464 78.1489 28.7121 78.1489 27.9966C78.1489 26.9558 77.6916 26.2566 76.7769 25.8988C75.8622 25.5084 74.5882 25.1345 72.9549 24.7766C71.9096 24.549 70.8479 24.2724 69.7699 23.9472C68.6919 23.622 67.6956 23.2154 66.7809 22.7275C65.8989 22.2072 65.1802 21.5566 64.6249 20.776C64.0696 19.9629 63.7919 18.9709 63.7919 17.8C63.7919 15.6533 64.6412 13.8481 66.3399 12.3845C68.0712 10.9209 70.4886 10.1891 73.5919 10.1891C76.4666 10.1891 78.7532 10.8558 80.4519 12.1894C82.1832 13.5229 83.2122 15.3606 83.5389 17.7024H77.6099C77.2506 15.9135 75.8949 15.0191 73.5429 15.0191C72.3669 15.0191 71.4522 15.2467 70.7989 15.7021C70.1782 16.1575 69.8679 16.7266 69.8679 17.4097C69.8679 18.1252 70.3416 18.6945 71.2889 19.1172C72.2362 19.54 73.4939 19.9303 75.0619 20.2881C76.7606 20.6784 78.3122 21.1175 79.7169 21.6054C81.1542 22.0608 82.2976 22.76 83.1469 23.7033C83.9962 24.614 84.4209 25.9312 84.4209 27.6551C84.4536 29.1512 84.0616 30.5011 83.2449 31.7045C82.4282 32.9079 81.2522 33.8512 79.7169 34.5342C78.1816 35.2172 76.3686 35.5588 74.2779 35.5588ZM99.0605 34.9733C96.5125 34.9733 94.4707 34.3554 92.9355 33.1194C91.4001 31.8834 90.6325 29.6879 90.6325 26.533V15.9948H86.4675V10.7745H90.6325L91.3675 4.28572H96.9045V10.7745H103.47V15.9948H96.9045V26.5818C96.9045 27.7527 97.1495 28.5658 97.6395 29.0212C98.1621 29.444 99.0441 29.6554 100.285 29.6554H103.323V34.9733H99.0605ZM116.254 35.5588C114.164 35.5588 112.449 35.2335 111.109 34.583C109.77 33.9 108.774 33.0055 108.12 31.8997C107.467 30.7938 107.14 29.5742 107.14 28.2406C107.14 25.9963 108.022 24.1749 109.786 22.7763C111.55 21.3778 114.196 20.6784 117.724 20.6784H123.898V20.093C123.898 18.4342 123.425 17.2145 122.477 16.4339C121.53 15.6533 120.354 15.263 118.949 15.263C117.675 15.263 116.565 15.572 115.617 16.19C114.67 16.7754 114.082 17.6536 113.853 18.8245H107.728C107.892 17.0681 108.48 15.5394 109.492 14.2384C110.538 12.9374 111.877 11.9454 113.51 11.2624C115.144 10.5468 116.973 10.1891 118.998 10.1891C122.461 10.1891 125.189 11.051 127.181 12.7748C129.174 14.4987 130.17 16.9381 130.17 20.093V34.9733H124.829L124.241 31.0703C123.523 32.3712 122.51 33.4446 121.203 34.2903C119.929 35.136 118.28 35.5588 116.254 35.5588ZM117.675 30.68C119.472 30.68 120.86 30.0945 121.84 28.9236C122.853 27.7527 123.49 26.3054 123.751 24.5815H118.41C116.744 24.5815 115.552 24.8905 114.833 25.5084C114.115 26.0939 113.755 26.8257 113.755 27.7039C113.755 28.6472 114.115 29.379 114.833 29.8994C115.552 30.4197 116.499 30.68 117.675 30.68ZM139.689 34.9733L132.584 10.7745H138.807L143.021 28.1918L147.921 10.7745H154.879L159.779 28.1918L164.042 10.7745H170.265L163.111 34.9733H156.594L151.4 16.873L146.206 34.9733H139.689ZM180.377 35.5588C178.287 35.5588 176.572 35.2335 175.232 34.583C173.894 33.9 172.897 33.0055 172.243 31.8997C171.591 30.7938 171.263 29.5742 171.263 28.2406C171.263 25.9963 172.145 24.1749 173.909 22.7763C175.673 21.3778 178.319 20.6784 181.847 20.6784H188.021V20.093C188.021 18.4342 187.548 17.2145 186.6 16.4339C185.654 15.6533 184.478 15.263 183.072 15.263C181.798 15.263 180.688 15.572 179.74 16.19C178.794 16.7754 178.206 17.6536 177.976 18.8245H171.851C172.015 17.0681 172.603 15.5394 173.615 14.2384C174.661 12.9374 176.001 11.9454 177.633 11.2624C179.267 10.5468 181.097 10.1891 183.121 10.1891C186.585 10.1891 189.312 11.051 191.304 12.7748C193.298 14.4987 194.293 16.9381 194.293 20.093V34.9733H188.952L188.364 31.0703C187.646 32.3712 186.634 33.4446 185.326 34.2903C184.052 35.136 182.403 35.5588 180.377 35.5588ZM181.798 30.68C183.596 30.68 184.983 30.0945 185.963 28.9236C186.977 27.7527 187.614 26.3054 187.874 24.5815H182.533C180.867 24.5815 179.676 24.8905 178.956 25.5084C178.238 26.0939 177.878 26.8257 177.878 27.7039C177.878 28.6472 178.238 29.379 178.956 29.8994C179.676 30.4197 180.622 30.68 181.798 30.68ZM201.523 45.7066L207.158 33.3633H205.688L196.231 10.7745H203.042L209.853 27.8015L216.958 10.7745H223.622L208.187 45.7066H201.523Z" fill="white"/>
</g>
<defs>
<clipPath id="clip0_82801_287">
<rect width="224" height="46" fill="white" transform="translate(0 0.125)"/>
</clipPath>
</defs>
</svg>
