<svg width="24" height="25" viewBox="0 0 24 25" fill="none" xmlns="http://www.w3.org/2000/svg">
<path d="M17 2.125H7C4.23858 2.125 2 4.36358 2 7.125V17.125C2 19.8864 4.23858 22.125 7 22.125H17C19.7614 22.125 22 19.8864 22 17.125V7.125C22 4.36358 19.7614 2.125 17 2.125Z" stroke="white" stroke-width="2" stroke-linecap="round" stroke-linejoin="round"/>
<path d="M15.9998 11.4948C16.1232 12.327 15.981 13.177 15.5935 13.9238C15.206 14.6706 14.5929 15.2762 13.8414 15.6545C13.0899 16.0327 12.2382 16.1644 11.4075 16.0307C10.5769 15.8971 9.80947 15.5049 9.21455 14.91C8.61963 14.315 8.22744 13.5477 8.09378 12.717C7.96011 11.8863 8.09178 11.0347 8.47004 10.2832C8.8483 9.53167 9.4539 8.91856 10.2007 8.53106C10.9475 8.14356 11.7975 8.0014 12.6298 8.12482C13.4787 8.2507 14.2646 8.64628 14.8714 9.25312C15.4783 9.85997 15.8739 10.6459 15.9998 11.4948Z" stroke="white" stroke-width="2" stroke-linecap="round" stroke-linejoin="round"/>
<path d="M17.5 6.625H17.51" stroke="white" stroke-width="2" stroke-linecap="round" stroke-linejoin="round"/>
</svg>
