<svg width="32" height="32" viewBox="0 0 32 32" fill="none" xmlns="http://www.w3.org/2000/svg">
<g clip-path="url(#clip0_82801_531)">
<path d="M31.6595 16C31.6595 24.8889 24.5269 32 15.8925 32C7.2583 32 0.000488281 24.8889 0.000488281 16C0.000488281 7.11112 7.13316 0 15.7674 0C24.4017 0 31.6595 7.11112 31.6595 16Z" fill="url(#paint0_linear_82801_531)"/>
<path d="M4.67003 17.069C4.67614 17.0161 4.71365 16.9789 4.76091 16.9789C4.80646 16.9789 4.8442 17.0161 4.85127 17.0687L5.0476 18.3457L4.85127 19.601C4.84397 19.6536 4.80669 19.6902 4.76091 19.6902C4.71362 19.6902 4.67614 19.6533 4.67003 19.6005L4.50439 18.3457L4.67003 17.069Z" fill="white"/>
<path d="M5.59866 16.1888C5.6464 16.1888 5.68513 16.2267 5.69293 16.2815L5.946 18.3458L5.69268 20.3649C5.6849 20.4196 5.64615 20.4576 5.59866 20.4576C5.55044 20.4576 5.51073 20.4185 5.50439 20.3644L5.28174 18.3458L5.50439 16.2815C5.51096 16.2279 5.55067 16.1888 5.59866 16.1888Z" fill="white"/>
<path d="M9.03078 14.5498C9.03515 14.4534 9.11074 14.3774 9.20209 14.3774C9.2929 14.3774 9.36815 14.4534 9.37357 14.5498L9.57401 18.3476L9.37357 20.8022V20.8015C9.36823 20.8977 9.2929 20.9736 9.20209 20.9736C9.11074 20.9736 9.03541 20.8979 9.03078 20.802L8.85352 18.3476L9.03078 14.5498Z" fill="white"/>
<path d="M7.25248 15.8302C7.2581 15.7543 7.31534 15.6975 7.38549 15.6975C7.45491 15.6975 7.51215 15.7543 7.51826 15.8297L7.74528 18.3466L7.51826 20.7812C7.51215 20.8566 7.45491 20.9135 7.38549 20.9135C7.31532 20.9135 7.25783 20.8566 7.25248 20.7812L7.05273 18.3466L7.25248 15.8302Z" fill="white"/>
<path d="M11.2567 20.7619C11.2521 20.8806 11.16 20.9733 11.0468 20.9733C10.9327 20.9733 10.8404 20.8803 10.8368 20.7627L10.6826 18.3485L10.8368 13.2928C10.8405 13.1741 10.9328 13.0812 11.047 13.0812C11.1603 13.0812 11.2524 13.1739 11.257 13.2925L11.4307 18.3488L11.2567 20.7619Z" fill="white"/>
<path d="M15.1125 20.6944C15.1096 20.8545 14.981 20.9848 14.8251 20.9848C14.6691 20.9848 14.5401 20.8545 14.5376 20.6958C14.5376 20.6958 14.4292 18.3522 14.4292 18.3485L14.5376 12.511C14.54 12.3506 14.6689 12.2203 14.8251 12.2203C14.981 12.2203 15.1098 12.3509 15.1125 12.5108L15.2338 18.3504L15.1125 20.6944Z" fill="white"/>
<path d="M13.1702 20.724C13.1665 20.8649 13.0571 20.9754 12.9214 20.9754C12.7848 20.9754 12.6755 20.8649 12.6725 20.7255L12.541 18.3495L12.6723 13.2563C12.6752 13.1154 12.7846 13.0051 12.9213 13.0051C13.0569 13.0051 13.1662 13.1154 13.1699 13.2563L13.3178 18.3492L13.1702 20.7257V20.724Z" fill="white"/>
<path d="M8.44229 20.8012C8.43617 20.8875 8.3709 20.953 8.29023 20.953C8.20843 20.953 8.14342 20.8875 8.138 20.8009L7.94971 18.3463L8.138 16.0121C8.14316 15.9253 8.20843 15.8597 8.29023 15.8597C8.37116 15.8597 8.43643 15.9248 8.44229 16.011L8.65613 18.3463L8.44229 20.8012Z" fill="white"/>
<path d="M6.60204 20.7063C6.59522 20.7716 6.54747 20.8188 6.48854 20.8188C6.4286 20.8188 6.38085 20.7713 6.375 20.7059L6.16357 18.3461L6.375 15.8969C6.38109 15.8317 6.42882 15.7842 6.48852 15.7842C6.54746 15.7842 6.5952 15.8315 6.60227 15.8969L6.84222 18.3461L6.60204 20.7063Z" fill="white"/>
<path d="M13.6011 13.4426C13.6041 13.2903 13.7222 13.1714 13.8696 13.1714C14.0167 13.1714 14.1341 13.2903 14.1375 13.4421L14.272 18.3499L14.1375 20.7111V20.7091C14.1341 20.8613 14.0167 20.98 13.8696 20.98C13.722 20.98 13.6041 20.8611 13.6011 20.7108L13.4814 18.3497L13.6011 13.4426Z" fill="white"/>
<path d="M10.312 20.7863C10.3071 20.8938 10.2231 20.9782 10.1213 20.9782C10.0185 20.9782 9.93465 20.8938 9.93053 20.7873L9.76465 18.3483L9.93027 13.6817C9.93473 13.5742 10.0185 13.4899 10.1213 13.4899C10.2231 13.4899 10.3069 13.5739 10.312 13.6817L10.4991 18.3483L10.312 20.7863Z" fill="white"/>
<path d="M12.2103 20.7478V20.7475C12.2059 20.8764 12.1056 20.9777 11.9811 20.9777C11.8562 20.9777 11.7553 20.876 11.7519 20.7476L11.6089 18.3485L11.7517 13.1221C11.755 12.9921 11.8559 12.8905 11.9811 12.8905C12.1056 12.8905 12.2064 12.9923 12.2103 13.1221L12.3711 18.3488L12.2103 20.7465V20.7475C12.2103 20.7472 12.2103 20.747 12.2103 20.7468V20.7478Z" fill="white"/>
<path d="M23.2917 15.5558C23.6235 15.4147 23.9877 15.3364 24.3694 15.3364C25.9079 15.3364 27.1551 16.6024 27.1551 18.164C27.1551 19.7255 25.9077 20.9914 24.3692 20.9914C24.3194 20.9914 16.6536 20.9875 16.6465 20.9867C16.4801 20.9696 16.3479 20.8255 16.3457 20.6525V11.6794C16.3477 11.5145 16.4037 11.4295 16.6139 11.3469C17.1549 11.1346 17.7676 11.009 18.396 11.009C20.9645 11.009 23.07 13.0078 23.2917 15.5558Z" fill="white"/>
<path d="M15.469 11.982C15.4715 11.8108 15.6089 11.6714 15.7762 11.6714C15.9431 11.6714 16.0804 11.8108 16.0829 11.9816L16.2195 18.351L16.0829 20.6628V20.66C16.0804 20.8314 15.9431 20.9705 15.7762 20.9705C15.6089 20.9705 15.4715 20.8314 15.4693 20.6625L15.3433 18.351L15.469 11.982Z" fill="white"/>
</g>
<defs>
<linearGradient id="paint0_linear_82801_531" x1="15.83" y1="0" x2="15.83" y2="32" gradientUnits="userSpaceOnUse">
<stop stop-color="#FF7602"/>
<stop offset="1" stop-color="#FF3502"/>
</linearGradient>
<clipPath id="clip0_82801_531">
<rect width="32" height="32" fill="white"/>
</clipPath>
</defs>
</svg>
