<svg width="24" height="25" viewBox="0 0 24 25" fill="none" xmlns="http://www.w3.org/2000/svg">
<path d="M23 3.1248C22.0424 3.80028 20.9821 4.31691 19.86 4.65481C19.2577 3.96232 18.4573 3.4715 17.567 3.24873C16.6767 3.02597 15.7395 3.082 14.8821 3.40926C14.0247 3.73652 13.2884 4.31921 12.773 5.07852C12.2575 5.83784 11.9877 6.73714 12 7.6548V8.65479C10.2426 8.70036 8.50127 8.31062 6.93101 7.52025C5.36074 6.72988 4.01032 5.56344 3 4.1248C3 4.1248 -1 13.1248 8 17.1248C5.94053 18.5228 3.48716 19.2237 1 19.1248C10 24.1248 21 19.1248 21 7.62479C21 7.34479 20.97 7.06481 20.92 6.79481C21.9406 5.7883 22.6608 4.51752 23 3.1248Z" stroke="white" stroke-width="2" stroke-linecap="round" stroke-linejoin="round"/>
</svg>
